<svg width="100" height="100" viewBox="0 0 100 100" fill="none" xmlns="http://www.w3.org/2000/svg">
  <path d="M34.9908 26.9186C32.7271 28.5446 22.5239 31.9874 18.1971 40.6959C14.1699 48.3166 17.5243 49.7232 22.0216 51.981C32.1369 56.7326 38.3631 53.5268 45.6711 56.8777C52.9787 60.2565 60.4106 76.2235 73.3044 82.3754C79.4949 85.1829 81.1885 83.0193 82.9258 79.4577C83.7816 77.5369 84.1106 73.7085 83.0227 70.4243C81.5 65.8278 81.4997 66.0002 81.4997 66.0002C78.9997 53.0002 80.3948 79.1509 80.8557 63.0168C74.8327 44.5755 60.892 31.3079 60.892 31.3079C60.892 31.3079 55.8209 31.5332 55.7418 38.9166C55.6597 46.5797 49.4721 43.4925 41.908 39.8592C36.0054 37.0548 32.6803 32.9075 34.9908 26.9186Z" fill="white"/>
  <path d="M28.2826 21.3644C25.1139 26.8127 27.9065 29.5838 23.9174 33.6527C23.0706 34.7345 23.3208 35.5763 24.1729 36.6763C24.4579 36.959 24.7429 37.2418 25.2873 37.4993C26.1194 37.788 28.406 36.7216 28.7029 35.8857C29.867 32.0662 34.3997 31.0239 37.5478 27.5054C40.4079 23.9838 40.7399 19.8757 37.6506 17.9126C34.5295 16.2289 30.5698 17.557 28.2826 21.3644ZM29.8994 29.0457C29.6322 27.1129 30.4963 24.409 31.0899 22.7651C32.2454 19.7567 34.2323 19.778 35.3493 20.3493C36.7546 20.8959 36.731 23.1053 35.5875 24.995C34.703 26.9155 31.8606 28.787 29.8994 29.0457Z" fill="white"/>
  </svg>
  