<svg width="512" height="512" viewBox="0 0 512 512" fill="none" xmlns="http://www.w3.org/2000/svg">
<rect width="512" height="512" fill="#FF6909"/>
<path fill-rule="evenodd" clip-rule="evenodd" d="M302.01 64.4072C229.915 68.7848 163.991 105.315 124.525 162.758C91.8181 210.362 79.3179 267.889 89.4062 324.377C95.2606 357.158 109.852 390.205 130.346 417.102C134.03 421.937 136.154 423.668 139.62 424.663C144.543 426.076 148.743 425.104 152.898 421.589C155.089 419.737 156.933 418.781 161.978 416.885C165.459 415.577 168.599 414.507 168.954 414.507C169.309 414.507 170.886 415.165 172.457 415.969C175.256 417.402 175.424 417.428 180.685 417.218C184.458 417.068 186.795 416.725 188.542 416.065C192.31 414.641 195.453 412.342 196.6 410.17C198.075 407.376 202.192 403.523 203.33 403.872C203.931 404.056 204.764 403.67 205.815 402.721C206.788 401.844 207.918 401.294 208.75 401.294C209.494 401.294 210.363 400.991 210.681 400.621C211.072 400.166 211.804 400.033 212.938 400.211C214.022 400.38 214.617 400.285 214.617 399.94C214.617 399.647 214.951 399.406 215.359 399.406C215.768 399.406 216.961 398.857 218.01 398.186C219.059 397.515 220.805 396.851 221.89 396.711C223.237 396.536 224.102 396.101 224.617 395.341C225.459 394.099 228.719 392.328 230.163 392.328C230.679 392.328 231.682 391.592 232.392 390.691C233.198 389.671 234.368 388.873 235.502 388.571C236.502 388.305 238.274 387.351 239.44 386.451C240.606 385.551 242.034 384.671 242.613 384.495C243.193 384.32 244.288 383.675 245.047 383.062C245.806 382.448 246.719 381.947 247.075 381.947C247.432 381.947 248.679 381.199 249.845 380.286C251.012 379.373 252.739 378.022 253.684 377.284C254.629 376.547 256.706 375.576 258.299 375.129C259.893 374.681 261.428 374.023 261.708 373.666C262.372 372.824 266.331 371.946 270.003 371.825C271.718 371.769 272.982 371.502 273.096 371.173C273.202 370.867 273.462 370.72 273.674 370.847C273.887 370.974 275.741 370.652 277.796 370.132C280.3 369.498 281.808 369.33 282.373 369.622C283.32 370.112 297.027 369.981 300.806 369.447C304.737 368.89 304.719 368.823 303.987 380.981C303.347 391.601 303.537 396.988 304.73 402.124C306.715 410.67 312.282 415.654 320.444 416.196C323.549 416.402 354.508 417.214 368.898 417.467C373.516 417.548 375.855 417.784 376.71 418.255C377.478 418.679 379.055 418.889 380.963 418.825C382.631 418.769 384.388 418.93 384.869 419.184C385.349 419.438 386.603 419.78 387.656 419.944C388.871 420.133 390.058 420.746 390.904 421.621C391.637 422.38 392.476 423.001 392.769 423.001C393.062 423.001 393.576 423.425 393.911 423.944C394.247 424.463 394.918 424.888 395.404 424.888C396.827 424.888 398.809 426.12 400.488 428.047C401.348 429.035 403.673 431.696 405.654 433.962C409.003 437.792 409.671 438.786 411.444 442.584C411.808 443.362 412.38 444.169 412.716 444.377C413.052 444.584 413.327 445.274 413.327 445.91C413.327 446.822 413.58 447.066 414.519 447.066C415.175 447.066 415.846 447.279 416.012 447.538C416.178 447.798 417.784 448.006 419.581 448C424.201 447.985 424.807 447.409 425.485 442.391C426.301 436.346 426.188 434.605 424.852 432.702C423.697 431.058 422.606 426.567 422.601 423.434C422.599 422.547 422.28 421.232 421.891 420.512C421.503 419.792 421.05 417.881 420.886 416.265C420.446 411.932 419.424 409.649 416.934 407.43C413.738 404.582 412.243 404.125 406.128 404.125C402.075 404.125 400.591 403.95 399.732 403.368C399.104 402.943 398.079 402.711 397.39 402.838C396.547 402.994 395.836 402.735 395.104 402.005C394.52 401.423 392.943 400.69 391.601 400.377C390.258 400.063 388.501 399.422 387.695 398.951C384.428 397.041 368.026 395.206 353.634 395.141C342.798 395.092 341.497 394.871 342.554 393.256C342.803 392.876 343.01 390.754 343.014 388.54C343.019 385.942 343.256 384.186 343.682 383.586C344.067 383.043 344.465 380.682 344.634 377.936C345.017 371.732 346.004 368.911 348.823 365.965C350.063 364.669 351.836 362.745 352.762 361.69C353.689 360.635 354.863 359.644 355.371 359.489C356.123 359.258 356.238 358.913 355.99 357.634C355.746 356.375 355.97 355.658 357.122 354.023C358.19 352.508 358.696 351.037 359.09 348.311C359.381 346.291 360.071 343.424 360.622 341.94C362.523 336.815 362.662 335.691 362.352 327.943C362.134 322.475 361.853 320.127 361.325 319.348C359.947 317.316 360.423 315.455 364.121 308.403C367.155 302.619 367.66 301.311 367.588 299.437C367.312 292.305 366.448 279.722 366.015 276.516C365.387 271.875 365.999 267.177 367.64 264.047C368.779 261.875 372.29 258.314 373.294 258.314C373.561 258.314 373.78 257.932 373.78 257.464C373.78 256.41 374.872 254.075 375.367 254.071C375.569 254.069 375.733 253.781 375.733 253.432C375.733 253.082 376.044 252.18 376.425 251.426C376.804 250.673 377.261 248.251 377.44 246.045C378.242 236.109 372.996 224.552 365.428 219.585C361.779 217.19 360.884 215.949 361.561 214.226C361.837 213.525 362.063 212.435 362.063 211.803C362.063 211.171 362.283 210.654 362.551 210.654C362.82 210.654 363.039 210.327 363.039 209.927C363.039 209.527 363.459 208.406 363.971 207.435C364.484 206.464 365.454 202.885 366.128 199.482C366.802 196.079 367.945 191.945 368.669 190.295C369.393 188.645 370.146 186.234 370.343 184.936C370.823 181.778 371.772 178.19 372.608 176.371C372.985 175.553 373.292 174.483 373.292 173.993C373.292 173.503 373.736 172.261 374.278 171.233C374.821 170.205 375.215 169.046 375.155 168.656C375.094 168.267 375.284 167.524 375.576 167.005C375.867 166.486 376.264 165.318 376.456 164.409C376.648 163.501 377.128 162.266 377.522 161.666C377.963 160.993 378.122 160.064 377.937 159.249C377.732 158.347 377.951 157.416 378.623 156.33C380.313 153.601 381.104 151.611 381.107 150.077C381.11 148.105 382.011 145.062 382.591 145.062C382.847 145.062 383.057 143.939 383.057 142.566C383.057 141.193 383.378 138.88 383.77 137.424C384.272 135.558 384.349 134.328 384.028 133.246C383.697 132.133 383.758 131.377 384.249 130.484C384.621 129.808 385.184 127.715 385.5 125.833C385.816 123.951 386.275 122.412 386.519 122.412C386.763 122.412 386.963 121.928 386.963 121.337C386.963 120.746 387.306 119.788 387.726 119.209C388.148 118.627 388.357 117.75 388.193 117.251C388.016 116.713 388.174 116.19 388.585 115.958C389.066 115.687 389.355 114.222 389.546 111.087C389.873 105.736 390.54 103.339 392.129 101.803C392.778 101.176 393.31 100.245 393.31 99.7356C393.31 99.2047 394.092 98.2671 395.141 97.5404C396.148 96.8424 397.835 95.0059 398.891 93.4581C401.494 89.642 401.76 86.864 399.907 82.8714C399.178 81.302 398.109 79.5914 397.532 79.0709C396.955 78.55 393.517 77.1433 389.892 75.9447C361.823 66.6633 331.158 62.6376 302.01 64.4072ZM363.831 138.285C358.806 152.023 357.565 155.248 357.149 155.656C356.898 155.902 356.692 156.461 356.692 156.896C356.692 157.331 356.349 157.963 355.929 158.3C355.477 158.663 355.271 159.32 355.424 159.91C355.573 160.483 355.276 161.504 354.73 162.305C353.065 164.745 352.912 165.071 352.345 167.404C352.039 168.661 350.89 171.422 349.792 173.538C348.694 175.655 346.945 179.273 345.905 181.578C344.865 183.883 343.462 186.471 342.786 187.327C342.11 188.184 341.557 189.111 341.557 189.387C341.557 189.664 341.335 189.891 341.064 189.891C340.521 189.891 337.163 196.524 337.163 197.597C337.163 197.967 336.816 198.548 336.392 198.888C335.93 199.258 335.71 199.96 335.843 200.635C335.979 201.321 335.803 201.86 335.394 202.012C335.024 202.149 334.722 202.67 334.722 203.171C334.722 203.671 334.368 204.602 333.936 205.24C333.504 205.878 333.278 206.723 333.435 207.119C333.771 207.963 332.171 211.12 330.802 212.318C329.212 213.709 327.398 217.102 327.398 218.686C327.398 219.736 327.133 220.247 326.507 220.405C326.016 220.529 325.24 221.244 324.782 221.993C324.324 222.742 323.083 223.948 322.023 224.672C320.963 225.397 320.091 226.368 320.085 226.83C320.08 227.293 319.745 227.793 319.343 227.943C318.94 228.092 318.61 228.531 318.61 228.917C318.61 229.303 318.294 230.183 317.909 230.872C317.523 231.561 316.869 233.665 316.457 235.549C315.278 240.924 313.052 245.464 307.827 253.138C305.165 257.049 302.987 260.442 302.987 260.68C302.987 260.918 302.328 261.764 301.522 262.561C299.955 264.11 299.738 265.31 300.597 267.691C301.018 268.859 300.992 269.355 300.475 269.957C300.111 270.381 299.881 271.111 299.963 271.58C300.045 272.049 299.829 272.919 299.483 273.514C299.067 274.227 298.85 276.519 298.845 280.256C298.838 285.237 298.699 286.19 297.69 288.17C297.059 289.408 296.68 290.766 296.847 291.187C297.015 291.609 296.846 292.295 296.472 292.712C296.098 293.128 295.672 294.666 295.525 296.129C295.377 297.592 294.889 299.476 294.44 300.316C293.884 301.355 293.725 302.363 293.941 303.475C294.368 305.672 293.216 307.389 291.318 307.389C290.551 307.389 289.622 307.036 289.254 306.604C288.886 306.173 286.146 304.075 283.166 301.942C277.77 298.08 276.109 296.419 275.402 294.177C275.197 293.528 274.614 292.427 274.107 291.731C271.985 288.818 271.019 283.148 272.262 280.903C272.644 280.213 272.625 279.774 272.19 279.267C271.51 278.477 272.135 275.903 273.752 272.834C274.653 271.124 276.77 269.639 278.307 269.639C278.723 269.639 279.063 269.369 279.063 269.039C279.063 268.14 281.874 265.02 282.992 264.677C286.057 263.737 289.532 251.301 290.307 238.495C290.874 229.129 291.028 228.187 292.182 226.999C292.754 226.41 293.222 225.393 293.222 224.738C293.222 224.084 294.101 222.362 295.175 220.912C296.249 219.462 297.128 218.048 297.128 217.768C297.128 217.489 297.341 217.26 297.601 217.26C298.285 217.26 302.262 211.944 302.102 211.244C302.028 210.919 302.362 210.652 302.843 210.65C303.325 210.649 304.268 209.86 304.94 208.896C305.611 207.933 308.194 204.524 310.679 201.321C313.164 198.117 315.527 194.881 315.93 194.128C317.023 192.085 327.958 178.143 330.171 175.97C331.229 174.932 332.888 173.021 333.859 171.724C334.829 170.426 336.541 168.515 337.664 167.477C338.786 166.438 341.032 163.89 342.655 161.814C344.277 159.738 346.535 157.083 347.671 155.915C348.807 154.748 349.874 153.224 350.041 152.531C350.418 150.966 352.408 148.635 354.277 147.567C355.053 147.125 355.902 146.167 356.164 145.44C356.427 144.713 356.872 144.118 357.155 144.118C357.438 144.118 357.669 143.807 357.669 143.427C357.669 143.047 358.108 142.509 358.645 142.231C359.182 141.953 359.622 141.392 359.622 140.985C359.622 140.577 360.164 139.576 360.827 138.76C364.117 134.71 365.249 133.406 365.385 133.513C365.466 133.578 364.767 135.725 363.831 138.285ZM255.872 302.199C256.046 302.728 256.611 303.143 257.158 303.143C258.37 303.143 259.895 303.884 261.487 305.247C262.158 305.821 263.699 306.836 264.912 307.503C267.576 308.968 272.977 314.476 275.01 317.801C275.475 318.563 276.013 319.187 276.205 319.187C276.396 319.187 277.252 320.187 278.106 321.411C279.96 324.066 279.705 324.789 276.577 325.737C275.393 326.095 274.066 326.56 273.627 326.769C273.188 326.978 272.364 327.031 271.796 326.888C271.059 326.701 270.763 326.845 270.763 327.389C270.763 327.848 270.357 328.152 269.744 328.152C269.146 328.152 266.985 329.711 264.519 331.92C262.207 333.992 259.335 336.133 258.137 336.677C256.939 337.221 254.016 338.798 251.641 340.182C249.259 341.57 246.393 342.85 245.25 343.035C244.111 343.221 242.58 343.858 241.848 344.452C241.117 345.045 239.689 345.792 238.674 346.112C237.039 346.627 233.458 348.416 222.429 354.227C220.683 355.146 218.706 356.05 218.034 356.235C217.363 356.42 216.212 357.116 215.476 357.781C214.741 358.447 213.977 358.836 213.78 358.645C212.975 357.867 213.302 352.679 214.447 348.064C215.602 343.415 215.62 343.103 214.878 340.942C214.15 338.823 214.246 337.118 215.093 337.118C215.297 337.118 216.316 335.711 217.356 333.992C218.396 332.273 219.541 330.758 219.899 330.624C220.257 330.492 220.742 329.895 220.977 329.299C221.278 328.534 221.866 328.172 222.982 328.066C224.269 327.944 224.633 327.654 224.95 326.501C225.405 324.844 226.557 323.905 228.136 323.905C228.82 323.905 229.264 323.623 229.264 323.187C229.264 322.145 232.786 318.613 235.875 316.557C237.341 315.581 238.54 314.514 238.54 314.185C238.54 313.857 238.959 313.459 239.472 313.302C239.984 313.145 240.526 312.706 240.677 312.326C240.828 311.947 241.288 311.636 241.7 311.636C242.112 311.636 243.256 310.773 244.241 309.718C245.227 308.664 246.71 307.465 247.536 307.055C248.361 306.645 250.172 305.173 251.558 303.782C254.243 301.091 255.372 300.677 255.872 302.199ZM282.642 334.091C282.2 335.203 276.622 334.9 276.622 333.764C276.622 333.533 276.929 333.343 277.305 333.343C277.68 333.343 278.943 332.818 280.112 332.176L282.237 331.01L282.572 332.216C282.756 332.88 282.788 333.723 282.642 334.091ZM202.89 355.747C203.318 356.244 203.429 358.098 203.281 362.235C203.011 369.781 201.978 372.527 198.009 376.251C188.637 385.045 187.146 386.296 184.743 387.377C183.317 388.019 181.792 388.546 181.355 388.548C180.918 388.551 180.292 388.865 179.965 389.246C179.517 389.768 178.567 389.893 176.121 389.749C174.335 389.645 172.605 389.546 172.278 389.528C171.951 389.511 171.38 388.936 171.008 388.252C170.415 387.157 170.448 386.714 171.281 384.596C171.802 383.271 172.421 382.071 172.656 381.93C172.892 381.79 173.663 380.624 174.369 379.339C175.076 378.055 176.401 376.204 177.315 375.227C178.228 374.25 178.976 372.967 178.976 372.377C178.976 370.919 180.292 369.206 181.412 369.206C181.935 369.206 182.474 368.751 182.669 368.144C182.857 367.561 183.696 366.318 184.533 365.382C185.37 364.447 186.68 362.894 187.444 361.931C188.207 360.968 189.416 359.936 190.129 359.639C190.842 359.341 191.95 358.718 192.59 358.254C193.231 357.789 194.329 357.408 195.031 357.407C195.733 357.405 197.187 356.881 198.261 356.242C200.5 354.909 202.03 354.745 202.89 355.747ZM229.316 359.65C228.41 361.239 223.446 365.772 221.96 366.367C221.136 366.697 220.491 367.205 220.526 367.496C220.683 368.775 220.384 369.15 218.966 369.451C217.918 369.674 216.987 370.431 215.915 371.934C214.022 374.59 213.558 375.021 209.664 377.753C205.627 380.584 203.499 381.74 203.077 381.332C202.717 380.984 206.052 376.021 207.035 375.444C207.353 375.257 208.029 374.414 208.536 373.57C209.043 372.727 209.819 371.925 210.262 371.79C210.704 371.654 211.988 370.486 213.115 369.195C214.241 367.903 215.451 366.847 215.802 366.847C216.153 366.847 218.173 365.545 220.289 363.953C223.65 361.427 228.245 358.843 229.403 358.829C229.614 358.827 229.574 359.196 229.316 359.65ZM156.761 402.986C158.373 403.39 160.275 403.832 160.989 403.97C161.711 404.109 162.396 404.618 162.53 405.116C162.692 405.715 163.207 406.013 164.075 406.013C166.236 406.013 165.454 407.573 163.099 407.962C159.95 408.482 155.732 410.07 153.883 411.434C152.938 412.13 151.918 412.553 151.616 412.372C151.314 412.192 150.465 412.602 149.729 413.284C148.695 414.241 145.075 416.394 144.499 416.394C144.447 416.394 143.824 415.437 143.115 414.267C142.405 413.098 140.913 411.267 139.798 410.201L137.771 408.261L139.21 407.541C140.002 407.145 141.352 406.232 142.21 405.511C143.24 404.644 144.109 404.286 144.773 404.454C145.492 404.635 145.776 404.482 145.776 403.912C145.776 403.355 146.045 403.2 146.676 403.394C147.171 403.546 148.325 403.356 149.239 402.972C151.379 402.075 153.137 402.078 156.761 402.986Z" fill="white"/>
</svg>
