<svg width="2032" height="814" viewBox="0 0 2032 814" fill="none" xmlns="http://www.w3.org/2000/svg">
  <path fill-rule="evenodd" clip-rule="evenodd" d="M442.434 0.862908C294.767 10.1399 159.742 87.5539 78.9066 209.285C11.9166 310.167 -13.6864 432.077 6.97659 551.785C18.9676 621.253 48.8536 691.286 90.8296 748.285C98.3756 758.531 102.726 762.2 109.825 764.309C119.908 767.303 128.51 765.242 137.021 757.794C141.508 753.868 145.285 751.844 155.618 747.826C162.749 745.054 169.18 742.785 169.908 742.785C170.635 742.785 173.864 744.18 177.082 745.884C182.814 748.921 183.159 748.975 193.934 748.531C201.663 748.213 206.449 747.486 210.028 746.087C217.745 743.07 224.183 738.197 226.532 733.594C229.552 727.673 237.985 719.508 240.316 720.248C241.548 720.638 243.254 719.821 245.407 717.81C247.399 715.95 249.713 714.785 251.417 714.785C252.942 714.785 254.722 714.143 255.373 713.358C256.174 712.394 257.673 712.112 259.996 712.489C262.215 712.849 263.434 712.646 263.434 711.916C263.434 711.294 264.119 710.785 264.955 710.785C265.792 710.785 268.235 709.621 270.384 708.199C272.533 706.777 276.109 705.37 278.331 705.072C281.089 704.702 282.862 703.781 283.917 702.17C285.642 699.538 292.318 695.785 295.275 695.785C296.332 695.785 298.387 694.224 299.842 692.316C301.493 690.153 303.889 688.462 306.211 687.823C308.259 687.26 311.888 685.238 314.277 683.33C316.665 681.422 319.59 679.557 320.777 679.186C321.963 678.815 324.206 677.448 325.761 676.148C327.315 674.848 329.185 673.785 329.916 673.785C330.647 673.785 333.2 672.201 335.589 670.266C337.979 668.33 341.517 665.468 343.452 663.904C345.387 662.341 349.641 660.285 352.905 659.336C356.17 658.387 359.312 656.993 359.887 656.237C361.246 654.453 369.356 652.591 376.876 652.335C380.389 652.216 382.979 651.651 383.211 650.953C383.428 650.304 383.961 649.993 384.396 650.262C384.832 650.531 388.63 649.849 392.838 648.747C397.966 647.404 401.056 647.048 402.212 647.666C404.152 648.704 432.227 648.428 439.967 647.295C448.019 646.116 447.981 645.973 446.482 671.738C445.172 694.243 445.56 705.66 448.004 716.544C452.071 734.654 463.472 745.217 480.19 746.365C486.549 746.802 549.96 748.523 579.434 749.059C588.892 749.231 593.683 749.731 595.434 750.729C597.007 751.626 600.237 752.073 604.145 751.937C607.561 751.817 611.161 752.159 612.145 752.697C613.129 753.236 615.698 753.96 617.855 754.308C620.343 754.709 622.774 756.008 624.506 757.862C626.008 759.47 627.727 760.785 628.327 760.785C628.926 760.785 629.979 761.685 630.666 762.785C631.353 763.885 632.729 764.785 633.724 764.785C636.639 764.785 640.698 767.395 644.137 771.48C645.898 773.573 650.66 779.213 654.718 784.015C661.578 792.13 662.946 794.238 666.577 802.285C667.322 803.935 668.494 805.645 669.182 806.085C669.871 806.525 670.434 807.987 670.434 809.335C670.434 811.266 670.951 811.785 672.875 811.785C674.218 811.785 675.594 812.235 675.934 812.785C676.274 813.335 679.563 813.775 683.243 813.763C692.706 813.731 693.948 812.51 695.336 801.876C697.008 789.067 696.775 785.377 694.039 781.345C691.674 777.86 689.44 768.343 689.428 761.703C689.424 759.823 688.771 757.037 687.975 755.511C687.179 753.986 686.253 749.936 685.916 746.511C685.014 737.329 682.922 732.49 677.821 727.788C671.275 721.753 668.214 720.785 655.689 720.785C647.388 720.785 644.348 720.413 642.589 719.181C641.302 718.28 639.202 717.787 637.792 718.057C636.064 718.387 634.608 717.838 633.109 716.292C631.913 715.058 628.684 713.505 625.934 712.841C623.184 712.177 619.584 710.818 617.934 709.819C611.242 705.772 577.648 701.884 548.171 701.746C525.976 701.643 523.311 701.174 525.476 697.751C525.986 696.945 526.41 692.448 526.419 687.758C526.429 682.251 526.913 678.531 527.787 677.258C528.574 676.109 529.389 671.105 529.736 665.285C530.52 652.139 532.542 646.16 538.316 639.917C540.856 637.17 544.487 633.094 546.385 630.858C548.283 628.622 550.687 626.522 551.728 626.192C553.269 625.703 553.504 624.973 552.996 622.262C552.495 619.594 552.955 618.075 555.315 614.609C557.501 611.398 558.538 608.282 559.345 602.504C559.942 598.224 561.354 592.149 562.482 589.004C566.377 578.142 566.662 575.76 566.027 559.342C565.58 547.754 565.005 542.779 563.923 541.128C561.101 536.821 562.075 532.878 569.65 517.933C575.863 505.676 576.899 502.903 576.751 498.933C576.185 483.818 574.416 457.152 573.528 450.358C572.242 440.524 573.497 430.568 576.858 423.935C579.191 419.331 586.382 411.785 588.437 411.785C588.985 411.785 589.434 410.975 589.434 409.984C589.434 407.75 591.669 402.803 592.684 402.793C593.097 402.789 593.434 402.179 593.434 401.439C593.434 400.698 594.071 398.786 594.85 397.189C595.628 395.592 596.564 390.46 596.929 385.785C598.572 364.729 587.827 340.238 572.326 329.712C564.853 324.637 563.019 322.007 564.407 318.355C564.972 316.87 565.434 314.559 565.434 313.22C565.434 311.881 565.884 310.785 566.434 310.785C566.984 310.785 567.434 310.092 567.434 309.245C567.434 308.398 568.293 306.022 569.343 303.964C570.393 301.906 572.38 294.322 573.76 287.11C575.14 279.898 577.482 271.137 578.965 267.641C580.447 264.145 581.991 259.035 582.394 256.285C583.377 249.593 585.32 241.988 587.033 238.134C587.804 236.401 588.434 234.133 588.434 233.095C588.434 232.057 589.343 229.425 590.454 227.246C591.565 225.068 592.373 222.61 592.249 221.785C592.125 220.96 592.513 219.385 593.111 218.285C593.708 217.185 594.52 214.71 594.914 212.785C595.308 210.86 596.291 208.243 597.097 206.971C598 205.546 598.327 203.576 597.948 201.849C597.528 199.937 597.976 197.964 599.353 195.663C602.815 189.88 604.434 185.662 604.44 182.413C604.447 178.234 606.292 171.785 607.481 171.785C608.005 171.785 608.434 169.405 608.434 166.495C608.434 163.586 609.091 158.683 609.894 155.599C610.924 151.644 611.08 149.038 610.423 146.745C609.746 144.386 609.87 142.784 610.876 140.891C611.638 139.458 612.791 135.023 613.438 131.035C614.086 127.047 615.025 123.785 615.525 123.785C616.025 123.785 616.434 122.76 616.434 121.508C616.434 120.255 617.138 118.225 617.998 116.997C618.861 115.765 619.29 113.905 618.954 112.849C618.592 111.708 618.916 110.6 619.756 110.109C620.742 109.533 621.334 106.429 621.726 99.7849C622.396 88.4459 623.762 83.3659 627.016 80.1119C628.346 78.7819 629.434 76.8099 629.434 75.7299C629.434 74.6049 631.036 72.6179 633.184 71.0779C635.247 69.5989 638.703 65.7069 640.865 62.4269C646.197 54.3399 646.743 48.4529 642.946 39.9919C641.454 36.6659 639.265 33.0409 638.083 31.9379C636.901 30.8339 629.859 27.8529 622.434 25.3129C564.942 5.64391 502.135 -2.88709 442.434 0.862908ZM739.434 166.785V295.785H771.434H803.434V245.785V195.785H851.434H899.434V167.285V138.785H851.434H803.434V116.785V94.7849H859.434H915.434V66.2849V37.7849H827.434H739.434V166.785ZM992.434 166.742V295.785H1003.43H1014.43V424.285V552.785H1007.93H1001.43V681.785V810.785H1084.43H1167.43V792.785V774.785H1104.93H1042.43V736.785V698.785H1095.93H1149.43V680.785V662.785H1095.93H1042.43V625.785V588.785H1104.93H1167.43V570.785V552.785H1123.43H1079.43V507.285V461.785L1099.18 461.768C1144.14 461.728 1161.55 456.446 1181.5 436.785C1199.21 419.34 1206.5 399.658 1205.12 372.987C1204.38 358.716 1202.7 352.08 1196.74 339.935C1193.11 332.56 1190.36 328.706 1183.68 321.686C1171.32 308.704 1157.79 300.974 1140.93 297.264C1135.48 296.064 1137.74 295.937 1165.68 295.864C1182.6 295.821 1196.43 295.496 1196.43 295.142C1196.43 294.789 1184.17 270.851 1169.18 241.949C1154.2 213.046 1141.81 189.103 1141.65 188.743C1141.49 188.382 1144.39 186.332 1148.08 184.186C1156.5 179.288 1167.98 168.135 1172.69 160.275C1179.28 149.275 1181.68 140.175 1182.21 124.258C1183.07 98.1609 1177.2 81.5039 1161.01 64.0749C1150.36 52.6119 1139.72 46.0449 1123.74 41.0649L1114.93 38.3199L1053.68 38.0089L992.434 37.6989V166.742ZM1264.43 166.785V295.785H1271.43H1278.43V424.285V552.785H1267.43H1256.43V681.785V810.785H1276.93H1297.43V756.785V702.785H1321.19H1344.95L1371.93 756.785L1398.92 810.785H1422.18C1434.97 810.785 1445.43 810.529 1445.43 810.217C1445.43 809.905 1432.33 784.457 1416.32 753.666C1400.3 722.875 1387.37 697.535 1387.57 697.355C1387.77 697.175 1391.12 695.7 1395 694.078C1404.85 689.972 1412.18 684.859 1419.81 676.764C1431.53 664.347 1437.43 648.097 1437.43 628.285C1437.43 597.737 1423.62 574.448 1397.93 561.677C1384.79 555.14 1373.73 552.816 1355.68 552.798L1342.43 552.785V424.285V295.785H1386.93H1431.43V424.285V552.785H1463.43H1495.43V505.285V457.785L1505.68 457.804L1515.93 457.824L1537.62 503.554C1549.55 528.706 1559.61 550.073 1559.98 551.035C1560.6 552.654 1559.52 552.785 1545.54 552.785H1530.43V681.785V810.785H1550.43H1570.42L1570.68 721.067L1570.93 631.349L1629.79 721.067L1688.64 810.785H1707.04H1725.43V681.785V552.785H1746.93H1768.43V423.785V294.785H1735.93H1703.43V423.785V552.785H1694.44H1685.44L1685.19 641.845L1684.93 730.904L1626.68 642.399C1594.65 593.722 1568.43 553.645 1568.43 553.34C1568.43 553.035 1583.51 552.785 1601.93 552.785C1620.36 552.785 1635.43 552.597 1635.43 552.368C1635.43 552.139 1623.31 528.595 1608.49 500.047C1593.68 471.5 1581.41 447.555 1581.24 446.836C1581.07 446.116 1583.28 444.123 1586.14 442.406C1598.76 434.848 1608.6 424.373 1614.45 412.285C1620.01 400.775 1621.79 390.673 1621.21 373.875C1620.8 361.941 1620.35 359.127 1617.53 350.785C1608.63 324.455 1586.92 304.517 1559.93 297.893L1551.93 295.93L1624.68 295.857L1697.43 295.785V266.785V237.785H1641.93H1586.43V215.785V193.785H1633.93H1681.43V165.285V136.785H1633.93H1586.43V115.785V94.7849H1641.93H1697.43V66.2849V37.7849H1609.43H1521.43V166.285V294.785H1480.93H1440.43V266.285V237.785H1384.93H1329.43V215.785V193.785H1376.93H1424.43V165.285V136.785H1376.93H1329.43V115.785V94.7849H1384.93H1440.43V66.2849V37.7849H1352.43H1264.43V166.785ZM1098.43 95.8769C1104.8 97.2439 1110.98 101.874 1114.91 108.241C1117.53 112.474 1117.93 114.075 1117.93 120.207C1117.93 128.507 1116.14 132.843 1110.29 138.696C1104.01 144.973 1100.17 145.785 1076.76 145.785H1056.43V120.285V94.7849H1074.88C1085.03 94.7849 1095.63 95.2759 1098.43 95.8769ZM569.055 157.422C558.763 186.536 556.222 193.371 555.37 194.235C554.855 194.757 554.434 195.94 554.434 196.863C554.434 197.785 553.73 199.124 552.87 199.838C551.944 200.607 551.522 202 551.836 203.251C552.141 204.464 551.534 206.628 550.415 208.326C547.004 213.497 546.692 214.187 545.53 219.131C544.903 221.796 542.55 227.646 540.301 232.131C538.052 236.616 534.47 244.283 532.34 249.168C530.21 254.054 527.335 259.537 525.951 261.352C524.567 263.167 523.434 265.132 523.434 265.718C523.434 266.305 522.979 266.785 522.424 266.785C521.311 266.785 514.434 280.841 514.434 283.116C514.434 283.899 513.723 285.13 512.854 285.852C511.908 286.636 511.457 288.123 511.73 289.553C512.008 291.008 511.648 292.149 510.81 292.471C510.053 292.761 509.434 293.867 509.434 294.927C509.434 295.988 508.71 297.961 507.824 299.312C506.939 300.664 506.477 302.456 506.799 303.294C507.486 305.083 504.21 311.772 501.405 314.311C498.148 317.259 494.434 324.449 494.434 327.807C494.434 330.031 493.891 331.114 492.608 331.45C491.603 331.713 490.014 333.227 489.076 334.814C488.138 336.402 485.595 338.957 483.424 340.493C481.253 342.029 479.467 344.087 479.455 345.066C479.444 346.046 478.759 347.107 477.934 347.423C477.109 347.74 476.434 348.669 476.434 349.488C476.434 350.306 475.787 352.171 474.997 353.631C474.207 355.091 472.868 359.55 472.023 363.542C469.61 374.934 465.05 384.553 454.348 400.817C448.895 409.104 444.434 416.296 444.434 416.8C444.434 417.304 443.084 419.097 441.434 420.785C438.224 424.069 437.78 426.612 439.539 431.657C440.402 434.133 440.348 435.184 439.289 436.46C438.544 437.358 438.072 438.905 438.24 439.899C438.409 440.893 437.966 442.737 437.257 443.996C436.405 445.507 435.961 450.365 435.95 458.285C435.936 468.839 435.651 470.86 433.585 475.055C432.293 477.679 431.516 480.557 431.859 481.45C432.202 482.343 431.856 483.797 431.09 484.68C430.324 485.563 429.451 488.822 429.15 491.922C428.848 495.023 427.849 499.015 426.929 500.794C425.79 502.996 425.464 505.132 425.906 507.489C426.78 512.145 424.422 515.785 420.533 515.785C418.963 515.785 417.061 515.036 416.306 514.121C415.552 513.207 409.94 508.76 403.837 504.241C392.784 496.056 389.383 492.537 387.934 487.785C387.515 486.41 386.321 484.077 385.282 482.601C380.936 476.429 378.957 464.413 381.503 459.655C382.286 458.194 382.246 457.263 381.355 456.189C379.964 454.514 381.244 449.06 384.555 442.556C386.4 438.932 390.736 435.785 393.884 435.785C394.737 435.785 395.434 435.213 395.434 434.513C395.434 432.608 401.19 425.997 403.481 425.27C409.759 423.278 416.875 396.924 418.463 369.785C419.624 349.938 419.939 347.941 422.304 345.423C423.476 344.176 424.434 342.021 424.434 340.633C424.434 339.246 426.234 335.597 428.434 332.525C430.634 329.452 432.434 326.454 432.434 325.862C432.434 325.27 432.87 324.785 433.402 324.785C434.803 324.785 442.95 313.519 442.622 312.035C442.471 311.348 443.154 310.782 444.14 310.778C445.127 310.774 447.059 309.102 448.434 307.061C449.809 305.02 455.099 297.796 460.19 291.007C465.28 284.218 470.12 277.359 470.945 275.764C473.184 271.434 495.581 241.888 500.113 237.285C502.279 235.085 505.678 231.035 507.666 228.285C509.654 225.535 513.161 221.485 515.46 219.285C517.759 217.085 522.359 211.685 525.683 207.285C529.006 202.885 533.629 197.26 535.957 194.785C538.284 192.31 540.468 189.082 540.811 187.612C541.583 184.296 545.659 179.356 549.488 177.094C551.077 176.156 552.816 174.127 553.353 172.586C553.891 171.046 554.803 169.785 555.382 169.785C555.961 169.785 556.434 169.126 556.434 168.32C556.434 167.515 557.334 166.374 558.434 165.785C559.534 165.196 560.434 164.008 560.434 163.144C560.434 162.28 561.545 160.159 562.903 158.429C569.641 149.847 571.96 147.084 572.238 147.311C572.405 147.447 570.973 151.997 569.055 157.422ZM1099.15 247.144C1111.41 272.916 1121.43 294.179 1121.43 294.394C1121.43 294.609 1106.81 294.785 1088.93 294.785H1056.43V247.25V199.715L1066.65 200L1076.87 200.285L1099.15 247.144ZM827.316 293.854C797.808 298.191 774.976 312.224 762.158 333.9C749.048 356.071 748.452 390.788 760.777 414.285C762.537 417.641 767.063 423.444 771.05 427.454C776.895 433.335 780.041 435.526 788.555 439.649C801.523 445.929 806.405 447.161 834.8 451.317C865.018 455.74 870.06 458.103 873.45 469.435C877.219 482.038 869.018 493.082 853.434 496.39C844.062 498.38 822.455 497.809 811.434 495.28C802.02 493.12 790.47 487.875 784.68 483.13L780.236 479.489L759.585 500.197L738.934 520.905L743.906 525.459C755.766 536.32 772.954 545.265 790.715 549.818L801.934 552.694L770.684 552.74L739.434 552.785V570.785V588.785H774.934H810.434V699.785V810.785H830.434H850.434V699.785V588.785H885.934H921.434V570.785V552.785L894.684 552.732L867.934 552.679L876.434 550.168C892.692 545.365 909.437 535.219 919.197 524.255C932.723 509.061 938.265 491.439 937.112 467.285C935.627 436.168 924.293 416.53 901.434 405.472C888.759 399.34 881.269 397.458 853.293 393.378C827.459 389.61 821.668 387.731 817.399 381.736C810.231 371.67 815.488 357.62 828.646 351.674C833.415 349.519 835.259 349.292 847.434 349.353C862.771 349.43 871.225 351.08 881.035 355.909C884.462 357.596 888.282 360.058 889.524 361.381C890.766 362.703 892.271 363.785 892.868 363.785C894.037 363.785 933.434 324.728 933.434 323.569C933.434 322.371 920.229 312.164 913.883 308.457C901.466 301.204 884.646 295.975 866.934 293.864C856.654 292.638 835.627 292.633 827.316 293.854ZM1841.43 323.285V351.785H1872.93H1904.43V452.285V552.785H1936.43H1968.43V452.285V351.785H1999.93H2031.43V323.285V294.785H1936.43H1841.43V323.285ZM1126.43 355.147C1142.75 363.829 1146.12 383.196 1133.5 395.816C1126.43 402.881 1122.49 403.785 1098.75 403.785H1079.43V378.215V352.645L1101.18 352.965C1120.08 353.243 1123.39 353.529 1126.43 355.147ZM1542.93 355.447C1559.48 364.391 1562.2 385.271 1548.36 397.113C1541.64 402.864 1537 403.785 1514.75 403.785H1495.43V378.215V352.645L1517.18 352.965C1537.24 353.26 1539.25 353.454 1542.93 355.447ZM347.934 504.785C348.29 505.906 349.447 506.785 350.567 506.785C353.049 506.785 356.174 508.356 359.434 511.244C360.809 512.461 363.965 514.613 366.448 516.025C371.906 519.13 382.968 530.802 387.131 537.849C388.085 539.464 389.186 540.785 389.579 540.785C389.971 540.785 391.724 542.906 393.473 545.498C397.271 551.126 396.748 552.658 390.341 554.667C387.917 555.426 385.198 556.41 384.299 556.853C383.4 557.296 381.713 557.409 380.549 557.105C379.04 556.71 378.434 557.015 378.434 558.168C378.434 559.141 377.602 559.785 376.346 559.785C375.122 559.785 370.694 563.089 365.645 567.769C360.908 572.16 355.026 576.697 352.572 577.85C350.119 579.003 344.132 582.346 339.267 585.279C334.389 588.22 328.518 590.931 326.178 591.325C323.844 591.718 320.708 593.068 319.209 594.326C317.711 595.584 314.786 597.167 312.709 597.844C309.359 598.937 302.025 602.727 279.434 615.041C275.859 616.99 271.809 618.905 270.434 619.297C269.059 619.689 266.701 621.164 265.194 622.574C263.688 623.985 262.124 624.809 261.721 624.405C260.071 622.755 260.741 611.762 263.087 601.981C265.451 592.13 265.489 591.468 263.968 586.888C262.477 582.398 262.674 578.785 264.409 578.785C264.828 578.785 266.914 575.804 269.044 572.161C271.175 568.517 273.519 565.306 274.253 565.024C274.987 564.743 275.98 563.479 276.46 562.216C277.077 560.593 278.282 559.826 280.568 559.602C283.204 559.344 283.949 558.73 284.598 556.286C285.53 552.774 287.89 550.785 291.125 550.785C292.526 550.785 293.434 550.186 293.434 549.263C293.434 547.055 300.649 539.57 306.975 535.212C309.978 533.144 312.434 530.883 312.434 530.186C312.434 529.49 313.292 528.647 314.342 528.314C315.391 527.981 316.502 527.051 316.81 526.247C317.119 525.443 318.062 524.785 318.905 524.785C319.749 524.785 322.092 522.956 324.111 520.72C326.131 518.485 329.168 515.945 330.859 515.076C332.55 514.208 336.258 511.087 339.098 508.141C344.597 502.437 346.91 501.559 347.934 504.785ZM1828.43 681.785V810.785H1848.93H1869.43V681.785V552.785H1848.93H1828.43V681.785ZM402.763 572.37C401.859 574.726 390.434 574.085 390.434 571.678C390.434 571.187 391.063 570.785 391.832 570.785C392.601 570.785 395.188 569.672 397.582 568.312L401.934 565.84L402.62 568.397C402.998 569.803 403.062 571.591 402.763 572.37ZM1365.47 589.793C1386.28 593.739 1398.5 609.837 1397.24 631.651C1396.24 648.917 1385.43 661.744 1367.93 666.424C1364.25 667.41 1354.34 667.764 1330.18 667.773L1297.43 667.785V628.285V588.785H1328.8C1346.05 588.785 1362.55 589.238 1365.47 589.793ZM239.415 618.262C240.291 619.317 240.52 623.245 240.216 632.012C239.662 648.004 237.547 653.823 229.418 661.715C210.222 680.351 207.169 683.001 202.246 685.292C199.325 686.653 196.202 687.77 195.306 687.775C194.411 687.781 193.13 688.446 192.46 689.254C191.542 690.36 189.596 690.624 184.587 690.32C180.928 690.099 177.386 689.888 176.716 689.851C176.046 689.815 174.876 688.597 174.115 687.146C172.899 684.826 172.967 683.888 174.673 679.399C175.74 676.591 177.008 674.048 177.49 673.75C177.973 673.452 179.552 670.981 180.999 668.259C182.446 665.537 185.161 661.616 187.032 659.545C188.903 657.474 190.434 654.756 190.434 653.505C190.434 650.416 193.13 646.785 195.423 646.785C196.495 646.785 197.599 645.82 197.999 644.535C198.384 643.298 200.102 640.664 201.817 638.682C203.531 636.7 206.214 633.409 207.778 631.368C209.342 629.327 211.817 627.141 213.278 626.511C214.739 625.88 217.007 624.559 218.319 623.575C219.631 622.59 221.881 621.783 223.319 621.78C224.757 621.777 227.734 620.666 229.934 619.311C234.52 616.487 237.654 616.14 239.415 618.262ZM293.54 626.535C291.685 629.902 281.517 639.508 278.475 640.768C276.786 641.467 275.465 642.545 275.538 643.162C275.859 645.872 275.246 646.667 272.343 647.305C270.196 647.777 268.289 649.382 266.093 652.567C262.215 658.194 261.265 659.109 253.289 664.897C245.02 670.897 240.663 673.347 239.798 672.483C239.06 671.744 245.892 661.227 247.905 660.005C248.557 659.609 249.94 657.822 250.979 656.034C252.017 654.246 253.608 652.547 254.514 652.26C255.42 651.972 258.05 649.498 260.357 646.761C262.665 644.024 265.142 641.785 265.861 641.785C266.581 641.785 270.717 639.026 275.052 635.654C281.935 630.3 291.347 624.824 293.719 624.795C294.151 624.789 294.07 625.573 293.54 626.535ZM144.934 718.371C148.234 719.226 152.131 720.164 153.594 720.456C155.072 720.75 156.474 721.829 156.75 722.885C157.081 724.153 158.135 724.785 159.914 724.785C164.339 724.785 162.739 728.092 157.915 728.916C151.465 730.017 142.826 733.384 139.038 736.274C137.103 737.749 135.014 738.644 134.396 738.261C133.777 737.879 132.038 738.749 130.53 740.193C128.412 742.222 120.997 746.785 119.818 746.785C119.711 746.785 118.435 744.757 116.983 742.278C115.53 739.799 112.473 735.92 110.189 733.66L106.037 729.549L108.986 728.024C110.607 727.185 113.372 725.249 115.129 723.721C117.24 721.885 119.02 721.126 120.379 721.481C121.852 721.866 122.434 721.541 122.434 720.334C122.434 719.153 122.984 718.825 124.277 719.235C125.291 719.557 127.654 719.155 129.527 718.342C133.909 716.44 137.51 716.447 144.934 718.371Z" fill="white"/>
  </svg>
  